<?xml version="1.0" encoding="UTF-8" standalone="no"?>
<svg
   xmlns:dc="http://purl.org/dc/elements/1.1/"
   xmlns:cc="http://creativecommons.org/ns#"
   xmlns:rdf="http://www.w3.org/1999/02/22-rdf-syntax-ns#"
   xmlns:svg="http://www.w3.org/2000/svg"
   xmlns="http://www.w3.org/2000/svg"
   xmlns:sodipodi="http://sodipodi.sourceforge.net/DTD/sodipodi-0.dtd"
   xmlns:inkscape="http://www.inkscape.org/namespaces/inkscape"
   version="1.1"
   id="svg2"
   xml:space="preserve"
   width="1440"
   height="394.66666"
   viewBox="0 0 1440 394.66666"
   sodipodi:docname="lacasa_logo.svg"
   inkscape:version="1.0.2 (e86c870879, 2021-01-15)"><metadata
     id="metadata8"><rdf:RDF><cc:Work
         rdf:about=""><dc:format>image/svg+xml</dc:format><dc:type
           rdf:resource="http://purl.org/dc/dcmitype/StillImage" /><dc:title></dc:title></cc:Work></rdf:RDF></metadata><defs
     id="defs6"><clipPath
       clipPathUnits="userSpaceOnUse"
       id="clipPath18"><path
         d="M 0,296 H 1080 V 0 H 0 Z"
         id="path16" /></clipPath><clipPath
       clipPathUnits="userSpaceOnUse"
       id="clipPath26"><path
         d="M 23,194.605 H 150.89 V 63.4366 H 23 Z"
         id="path24" /></clipPath></defs><sodipodi:namedview
     pagecolor="#ffffff"
     bordercolor="#666666"
     borderopacity="1"
     objecttolerance="10"
     gridtolerance="10"
     guidetolerance="10"
     inkscape:pageopacity="0"
     inkscape:pageshadow="2"
     inkscape:window-width="1330"
     inkscape:window-height="716"
     id="namedview4"
     showgrid="false"
     inkscape:zoom="0.80138889"
     inkscape:cx="720"
     inkscape:cy="197.33333"
     inkscape:window-x="36"
     inkscape:window-y="28"
     inkscape:window-maximized="1"
     inkscape:current-layer="g10" /><g
     id="g10"
     inkscape:groupmode="layer"
     inkscape:label="lacasa_logo"
     transform="matrix(1.3333333,0,0,-1.3333333,0,394.66667)"><g
       id="g12"><g
         id="g14"
         clip-path="url(#clipPath18)"><g
           id="g20"><g
             id="g22" /><g
             id="g34"><g
               clip-path="url(#clipPath26)"
               id="g32"><g
                 transform="translate(23,95.501)"
                 id="g30"><path
                   d="M 0,0 V 99.104 H 42.357 V 2.185 c 0,-3.888 3.552,-5.831 10.657,-5.831 h 74.876 l -0.272,-28.418 h -78.43 c -2.552,0 -4.918,0.118 -7.105,0.363 -14.939,0.729 -25.686,3.581 -32.244,8.563 C 3.279,-18.161 0,-10.447 0,0"
                   style="fill:#000000;fill-opacity:1;fill-rule:nonzero;stroke:none"
                   id="path28" /></g></g></g></g><g
           id="g36"
           transform="translate(245.1738,118.4551)"><path
             d="M 0,0 H 34.706 L 14.757,42.629 Z m -70.23,-55.019 54.381,115.137 c 5.464,11.66 16.576,17.489 33.339,17.489 16.576,0 27.601,-5.829 33.065,-17.489 L 104.936,-55.019 H 60.666 L 47.276,-26.6 H -12.57 l -13.389,-28.419 z"
             style="fill:#000000;fill-opacity:1;fill-rule:nonzero;stroke:none"
             id="path38" /></g><g
           id="g40"
           transform="translate(371.4702,92.585)"><path
             d="m 0,0 v 72.143 c 0,11.414 3.322,19.249 9.975,23.501 6.648,4.247 18.718,6.377 36.208,6.377 h 82.528 V 73.965 H 52.196 c -5.467,-0.49 -8.746,-2.431 -9.839,-5.83 V 10.567 c 0,-4.865 1.273,-8.142 3.826,-9.838 1.456,-0.975 4.372,-1.458 8.744,-1.458 h 3.554 70.23 V -29.148 H 39.898 c -4.74,0 -9.658,0.726 -14.757,2.185 C 8.378,-22.592 0,-13.606 0,0"
             style="fill:#000000;fill-opacity:1;fill-rule:nonzero;stroke:none"
             id="path42" /></g><g
           id="g44"
           transform="translate(732.9941,168.7358)"><path
             d="M 0,0 C 0,2.186 0.363,4.372 1.092,6.558 6.013,19.431 19.035,25.87 40.17,25.87 h 86.081 V -2.186 L 51.647,-2.55 c -6.196,-0.245 -9.29,-2.312 -9.29,-6.195 v -8.745 c 0,-0.973 0.089,-1.582 0.272,-1.822 0.91,-3.403 4.463,-5.346 10.659,-5.829 h 2.732 30.605 c 9.109,0 17.122,-1.582 24.049,-4.736 10.385,-4.373 15.577,-11.421 15.577,-21.135 V -77.61 c 0,-10.446 -5.377,-18.098 -16.123,-22.954 -7.288,-3.159 -16.034,-4.735 -26.234,-4.735 H 0.271 v 28.419 h 73.785 c 6.558,1.458 9.838,4.008 9.838,7.651 v 9.474 c 0,3.642 -3.007,5.705 -9.018,6.192 H 39.624 c -14.211,0 -25.235,3.884 -33.065,11.662 C 2.185,-37.53 0,-32.792 0,-27.692 Z"
             style="fill:#000000;fill-opacity:1;fill-rule:nonzero;stroke:none"
             id="path46" /></g><g
           id="g48"
           transform="translate(952.0645,118.4551)"><path
             d="M 0,0 H 34.705 L 14.757,42.629 Z m -70.23,-55.019 54.38,115.137 c 5.465,11.66 16.577,17.489 33.34,17.489 16.573,0 27.598,-5.829 33.065,-17.489 L 104.936,-55.019 H 60.665 L 47.275,-26.6 H -12.57 l -13.39,-28.419 z"
             style="fill:#000000;fill-opacity:1;fill-rule:nonzero;stroke:none"
             id="path50" /></g><g
           id="g52"
           transform="translate(599.7666,63.6953)"><path
             d="m 0,0 c -15.043,0 -28.314,-0.116 -41.587,0.045 -7.443,0.089 -10.894,4.171 -10.864,11.633 0.069,15.978 -0.256,31.962 0.074,47.933 0.063,3.041 1.67,6.755 3.806,8.938 20.749,21.187 41.761,42.116 63.24,63.66 2.564,-2.079 4.987,-3.712 7.015,-5.741 19.084,-19.107 38.225,-38.159 57.002,-57.565 2.846,-2.942 5.377,-7.555 5.538,-11.497 0.597,-14.81 0.017,-29.667 0.147,-44.502 0.082,-9.183 -4.352,-13.127 -13.283,-13.02 -10.65,0.13 -21.318,0.307 -31.953,-0.125 -7.197,-0.294 -9.2,2.827 -8.998,9.498 0.34,11.02 -0.292,22.071 0.107,33.089 0.277,7.701 -2.205,11.595 -10.393,10.675 -2.629,-0.299 -5.342,-0.246 -7.98,0.022 C 3.139,53.935 -0.566,50.564 -0.152,41.379 0.445,28.162 0,14.895 0,0"
             style="fill:#000000;fill-opacity:1;fill-rule:evenodd;stroke:none"
             id="path54" /></g><g
           id="g56"
           transform="translate(703.3037,147.0234)"><path
             d="m 0,0 c -26.296,26.334 -52.567,52.695 -78.764,79.131 -5.333,5.381 -11.178,7.305 -16.892,1.638 -27.505,-27.286 -54.937,-54.657 -81.783,-82.58 -2.542,-2.641 -2.838,-11.971 -0.714,-13.554 3.554,-2.654 10.099,-2.605 14.998,-1.668 3.136,0.599 5.665,4.753 8.322,7.455 21.793,22.185 43.553,42.119 67.31,66.352 3.484,-4.69 5.036,-5.125 7.168,-7.26 21.464,-21.51 43.037,-42.911 64.551,-64.373 5.228,-5.217 11.357,-7.325 17.082,-1.994 C 7.093,-11.438 5.357,-5.364 0,0"
             style="fill:#000000;fill-opacity:1;fill-rule:evenodd;stroke:none"
             id="path58" /></g><g
           id="g60"
           transform="translate(652.0244,232.1738)"><path
             d="m 0,0 c -3.264,-0.261 -8.35,-2.117 -9.064,-4.362 -1.213,-3.81 -1.123,-9.613 1.085,-12.631 6.151,-8.409 13.668,-15.82 20.647,-23.624 1.039,0.852 2.08,1.705 3.121,2.559 0.179,0.719 0.499,1.437 0.509,2.16 0.098,6.799 0.169,13.599 0.189,20.399 C 16.531,0.302 15.718,1.257 0,0"
             style="fill:#000000;fill-opacity:1;fill-rule:evenodd;stroke:none"
             id="path62" /></g></g></g></g></svg>
