<?xml version="1.0" encoding="utf-8"?>
<!-- Generator: Adobe Illustrator 24.0.2, SVG Export Plug-In . SVG Version: 6.00 Build 0)  -->
<svg version="1.1" id="Capa_1" xmlns="http://www.w3.org/2000/svg" xmlns:xlink="http://www.w3.org/1999/xlink" x="0px" y="0px"
	 viewBox="0 0 2948.38 433.05" style="enable-background:new 0 0 2948.38 433.05;" xml:space="preserve">
<style type="text/css">
	.st0{fill:#FFFFFF;stroke:#FFFFFF;stroke-width:20;stroke-miterlimit:10;}
	.st1{fill:#010202;}
	.st2{fill:#F08125;}
</style>
<g>
	<circle class="st0" cx="202.24" cy="216.53" r="174.22"/>
	<g>
		<path class="st1" d="M532.18,321.1c-23.57,0-46.14,0-70.47,0c27.52-70.52,55.37-139.74,82.99-209.57c3.2-0.2,6.11-0.54,9.03-0.54
			c25.31-0.04,50.63-0.09,75.94,0c18.28,0.06,26.93,7.28,29.4,25.52c4.68,34.61,8.88,69.29,13.34,103.93
			c0.54,4.21,1.4,8.38,2.49,14.76c3.96-3.45,6.74-5.49,9.06-7.95c30.15-31.99,60.23-64.03,90.32-96.06
			c8.89-9.46,17.91-18.81,26.63-28.44c7.4-8.17,16.26-12,27.38-11.87c24.98,0.3,49.96,0.08,74.94,0.12c2.61,0,5.22,0.35,9.42,0.66
			c-27.87,70.28-55.4,139.67-83.06,209.41c-23.57,0-46.78,0-71.6,0c5.53-17.3,13.04-33.02,19.43-49.14
			c6.37-16.07,13.03-32.03,19.57-48.04c6.64-16.25,13.29-32.49,19.93-48.73c-0.54-0.45-1.07-0.91-1.61-1.36
			c-2.33,2.28-4.74,4.48-6.98,6.84c-31.6,33.36-63.28,66.65-94.64,100.23c-5.43,5.82-11.04,8.42-19.09,8.26
			c-23.64-0.46-47.29-0.17-70.94-0.17c-3.26,0-6.51,0-10.87,0c-5.52-40.31-10.92-79.73-16.32-119.16
			C573.44,219.52,553.39,270.24,532.18,321.1z"/>
		<path class="st1" d="M1106.18,223.06c1.9-4.43,3.68-8.58,6.09-14.18c-54.71,0-108.1,0-162.46,0c0.78-3.43,1.03-5.67,1.81-7.69
			c2.98-7.76,5.88-15.57,9.27-23.15c4.16-9.3,11.48-14.42,21.82-14.86c2-0.08,4-0.07,5.99-0.07c51.96,0,103.93-0.01,155.89,0.01
			c2.66,0,5.34-0.06,7.99,0.2c15.34,1.48,26.48,15.57,24.26,30.86c-0.47,3.25-1.46,6.5-2.68,9.56
			c-11.89,29.99-23.87,59.93-35.84,89.89c-0.49,1.23-0.99,2.47-1.58,3.66c-7.59,15.42-19.88,24.11-37.16,24.18
			c-57.96,0.22-115.92-0.21-173.88,0.3c-14.89,0.13-29.38-13.33-22.13-32.3c4.4-11.49,8.6-23.09,13.64-34.29
			c9.35-20.76,25.53-31.98,48.56-32.06c42.97-0.17,85.94-0.05,128.91-0.05C1098.32,223.06,1101.95,223.06,1106.18,223.06z
			 M1092.1,257.63c-4.58,0-7.78,0-10.97,0c-13.97,0-27.94,0-41.91,0c-18.63,0-37.26,0.04-55.88-0.02
			c-4.77-0.02-9.77-0.07-12.56,4.38c-3.08,4.91-6.06,10.11-5.93,17.21c3.68,0,6.97,0,10.25,0c19.96,0,39.92,0,59.88,0
			c12.97,0,25.95-0.09,38.92,0.04c4.98,0.05,9.51-0.86,11.83-5.64C1087.99,268.91,1089.62,263.92,1092.1,257.63z"/>
		<path class="st1" d="M2010.12,321.58c-5.48,12.48-10.93,23.87-15.52,35.61c-4.09,10.46-11.15,14.87-22.27,14.46
			c-12.3-0.46-24.63-0.07-36.94-0.13c-2.55-0.01-5.1-0.37-8.31-0.62c0.95-2.86,1.51-5.07,2.4-7.13
			c21.83-50.66,43.57-101.36,65.6-151.93c11.65-26.75,32.36-42.41,60.96-47.56c4.87-0.88,9.93-0.93,14.91-0.93
			c39.61-0.02,79.23,0.74,118.82-0.14c23.05-0.51,42.12,22.06,30.69,46.96c-8.73,19.02-16.28,38.59-25.12,57.56
			c-16.29,34.94-43.8,53.44-82.66,53.81c-30.29,0.29-60.58,0.06-90.87,0.06C2018.18,321.58,2014.53,321.58,2010.12,321.58z
			 M2032.3,272.41c2.54,0.38,4.43,0.9,6.31,0.9c27.31,0.05,54.63-0.07,81.94,0.11c7.38,0.05,11.78-3.29,14.52-9.83
			c6.55-15.64,13.3-31.21,19.84-46.86c0.83-1.98,0.87-4.28,1.3-6.52c-1.58-0.47-2.51-0.99-3.43-0.99
			c-28.31-0.06-56.62,0.01-84.94-0.13c-7.01-0.03-11.1,3.5-13.69,9.55c-6.8,15.9-13.66,31.78-20.42,47.7
			C2033.01,268.06,2032.85,270.02,2032.3,272.41z"/>
		<path class="st1" d="M1772.71,321.57c-20.3-0.01-40.61,0.22-60.91-0.08c-17.36-0.26-30.72-11.73-32.78-28.85
			c-0.72-5.97,0.37-12.77,2.66-18.37c8.93-21.83,18.08-43.62,28.27-64.89c14.22-29.69,38.54-45.41,71.41-45.92
			c41.26-0.65,82.55-0.21,123.82,0.04c24.02,0.14,38.84,22.19,29.71,44.47c-8.7,21.21-17.38,42.5-27.52,63.04
			c-15.93,32.29-42.48,49.48-78.73,50.47C1810.01,321.99,1791.35,321.57,1772.71,321.57z M1745.77,272.35
			c2.54,0.4,4.4,0.95,6.27,0.96c27.31,0.06,54.63-0.06,81.94,0.11c7.3,0.05,11.83-3,14.6-9.67c6.5-15.67,13.29-31.21,19.85-46.86
			c0.85-2.02,1.02-4.31,1.61-6.94c-2.62-0.33-4.54-0.78-6.46-0.78c-26.98-0.05-53.96,0.11-80.94-0.12
			c-7.82-0.07-12.25,3.41-15.15,10.39c-6.37,15.36-13.13,30.56-19.66,45.85C1746.98,267.33,1746.57,269.56,1745.77,272.35z"/>
		<path class="st1" d="M2755.83,321.57c-19.64,0-39.31-0.68-58.91,0.17c-25.84,1.12-43.33-25.56-32.18-49.15
			c9.65-20.42,17.65-41.63,27.34-62.03c14.43-30.4,38.91-46.71,72.7-47.14c40.93-0.51,81.88-0.15,122.82,0.06
			c24.2,0.12,39.15,21.79,30.09,44.14c-8.73,21.56-17.52,43.17-27.86,63.97c-15.84,31.87-42.27,48.82-78.08,49.88
			C2793.12,322.02,2774.47,321.57,2755.83,321.57z M2728.56,272.3c2.36,0.54,3.32,0.95,4.29,0.96c28.31,0.06,56.62,0.02,84.93,0.13
			c6.49,0.03,10.73-2.89,13.19-8.7c7.02-16.53,14.04-33.06,20.98-49.62c0.59-1.41,0.57-3.08,0.93-5.25
			c-3.16-0.26-5.74-0.65-8.31-0.66c-25.98-0.05-51.96,0.21-77.93-0.16c-8.65-0.13-13.59,3.36-16.75,11.12
			c-6.03,14.78-12.52,29.36-18.74,44.06C2730.15,266.53,2729.58,269.06,2728.56,272.3z"/>
		<path class="st1" d="M2414.81,163.45c20.63,0,41.29,0.63,61.89-0.18c20.86-0.82,41.37,19.44,30.53,45.58
			c-8.53,20.56-16.93,41.23-26.67,61.22c-16.13,33.1-43.02,50.9-80.14,51.4c-37.6,0.5-75.23-0.72-112.8,0.4
			c-25.99,0.77-44.69-24.89-32.47-50.4c9.32-19.47,17.21-39.62,26.15-59.28c14.51-31.92,39.6-48.22,74.61-48.83
			c19.63-0.34,39.27-0.06,58.9-0.06C2414.81,163.34,2414.81,163.39,2414.81,163.45z M2442.99,210.3c-1.95-0.5-3.17-1.08-4.4-1.08
			c-28.31-0.06-56.62-0.03-84.94-0.08c-6.55-0.01-10.44,3.41-12.9,9.14c-6.94,16.2-14,32.35-20.88,48.57
			c-0.69,1.64-0.47,3.66-0.68,5.6c1.53,0.39,2.47,0.83,3.41,0.83c28.31,0.05,56.62-0.01,84.94,0.11c6.96,0.03,11.14-3.33,13.73-9.47
			c6.46-15.32,13.05-30.59,19.49-45.92C2441.73,215.68,2442.18,213.14,2442.99,210.3z"/>
		<path class="st1" d="M1669.57,163.69c-5.71,13-10.45,24.65-15.94,35.95c-3.35,6.89-9.79,9.55-17.4,9.51
			c-12.31-0.07-24.63-0.04-36.94-0.06c-23.96-0.03-47.93,0.17-71.89-0.19c-8.52-0.13-13.71,3.16-16.91,10.95
			c-6.06,14.75-12.56,29.33-18.76,44.02c-1.09,2.59-1.62,5.43-2.8,9.52c45.19,0,88.92,0,134.2,0c-2.35,5.94-4.05,10.51-5.94,14.99
			c-2.97,7.04-5.99,14.07-9.13,21.03c-3.46,7.67-9.29,11.95-17.91,11.96c-45.6,0.06-91.19,0.46-136.78,0.03
			c-22.4-0.21-38.01-22.75-29.8-43.66c9.71-24.72,19.83-49.46,32.24-72.89c14.3-27,38.46-41.07,69.23-41.43
			c45.26-0.53,90.53-0.14,135.79-0.13C1663.13,163.3,1665.43,163.5,1669.57,163.69z"/>
		<path class="st2" d="M280.66,216.38c-0.1,43.38-35.57,78.65-78.98,78.55c-43.21-0.1-78.86-35.92-78.66-79.04
			c0.2-43.33,35.7-78.5,79.16-78.43C245.65,137.54,280.76,172.85,280.66,216.38z"/>
		<path class="st1" d="M1251.94,321.16c-21.18,0-41.09,0-61.88,0c0.91-3.07,1.45-5.6,2.39-7.96c13.4-33.66,26.56-67.42,40.38-100.9
			c13.11-31.78,37.09-48.84,71.72-49.24c35.28-0.41,70.58,0,105.87,0.08c1.64,0,3.28,0.25,5.74,0.46c-0.62,2.48-0.9,4.67-1.72,6.64
			c-3.31,7.98-7.06,15.79-10.13,23.86c-3.96,10.41-11.27,14.89-22.28,14.77c-21.97-0.23-43.96,0.38-65.92-0.25
			c-11.3-0.33-17.7,3.79-22.01,14.33c-12.22,29.84-25.26,59.33-38,88.96C1254.8,314.93,1253.4,317.92,1251.94,321.16z"/>
		<path class="st1" d="M2675.07,106.31c-30.97,72.22-61.53,143.5-92.14,214.88c-20.49,0-40.38,0-61.17,0
			c0.61-2.49,0.84-4.65,1.66-6.56c27.94-64.99,55.97-129.93,83.86-194.94c4.19-9.76,11.18-14.28,21.73-14.11
			c12.97,0.2,25.94,0.03,38.92,0.07C2669.81,105.65,2671.68,105.98,2675.07,106.31z"/>
		<path class="st1" d="M57.97,313.45c18.16-23.47,59.82-33.51,92.5-16.59c34.68,17.96,49.92,58.36,39.26,91.19
			C158.45,392.21,90.42,366.21,57.97,313.45z"/>
		<path class="st1" d="M191.36,42.31c10.32,30.93-2.33,71.53-37,90.61c-33.75,18.57-74.65,8.65-95.47-16.22
			C91.55,71.81,135.23,46.79,191.36,42.31z"/>
		<path class="st1" d="M216.85,44c46.82-0.86,106.73,34.87,129.93,76.62c-14.82,20.19-57.34,35.26-94.49,13.91
			C220.36,116.17,204.25,75.28,216.85,44z"/>
		<path class="st1" d="M46.11,291.49c-23.78-38.78-24.47-110.07-0.03-150.98c33.82,5.84,60.8,40.16,60.18,76.58
			C105.65,253.37,78,287.58,46.11,291.49z"/>
		<path class="st1" d="M345.74,314.54c-32.62,45.07-75.91,70.34-130.95,75.27c-12.61-30.59,2.86-70.73,33.6-89.38
			C285.05,278.19,327.9,291.92,345.74,314.54z"/>
		<path class="st1" d="M358.03,293.02c-36.01-9.13-60.2-41.35-59.21-78.23c0.94-35.01,26.74-66.71,59.5-73.09
			C381.85,179.94,383.24,249.28,358.03,293.02z"/>
	</g>
</g>
</svg>
