<?xml version="1.0" encoding="UTF-8" standalone="no"?>
<svg
   xmlns:dc="http://purl.org/dc/elements/1.1/"
   xmlns:cc="http://creativecommons.org/ns#"
   xmlns:rdf="http://www.w3.org/1999/02/22-rdf-syntax-ns#"
   xmlns:svg="http://www.w3.org/2000/svg"
   xmlns="http://www.w3.org/2000/svg"
   version="1.1"
   id="svg2"
   xml:space="preserve"
   width="566.92902"
   height="377.95279"
   viewBox="0 0 566.92902 377.95279"><metadata
     id="metadata8"><rdf:RDF><cc:Work
         rdf:about=""><dc:format>image/svg+xml</dc:format><dc:type
           rdf:resource="http://purl.org/dc/dcmitype/StillImage" /><dc:title></dc:title></cc:Work></rdf:RDF></metadata><defs
     id="defs6" /><g
     id="g10"
     transform="matrix(1.3333333,0,0,-1.3333333,0,377.9528)"><g
       id="g12"
       transform="scale(1,-1)"><path
         d="m 82.86621,-218.62695 c 0,0 -43.3418,0 -43.3418,0 0,0 6.48731,3.11425 6.75,9.33984 0,0 0,52.94141 0,52.94141 0,0 -2.33691,3.8955 -6.75,4.41406 0,0 0,0.77734 0,0.77734 0,0 24.39649,0 24.39649,0 0,0 -7.98242,-1.6914 -8.53906,-8.58008 -0.01758,-0.24707 -0.0293,-0.5 -0.0293,-0.75976 0,-7.52832 0,-22.84082 0,-22.84082 0,0 20.7666,1.81543 31.66797,-7.26563 0,0 -32.44336,4.41309 -32.1836,0.51856 0,0 0,-22.31641 0,-22.31641 0,0 0.51563,-3.37695 8.04639,-3.37695 0,0 16.34717,-1.03711 17.64893,10.38379 0,0 1.55615,0 1.55615,0 0,0 0.77783,-13.23535 0.77783,-13.23535 z"
         style="fill:#654e2d;fill-opacity:1;fill-rule:nonzero;stroke:none"
         id="path14" /><path
         d="m 85.45898,-218.88672 c 0,0 37.63184,0 37.63184,0 0,0 0,12.45801 0,12.45801 0,0 -2.07715,0 -2.07715,0 0,0 -0.51562,-8.82813 -7.78711,-9.08399 0,0 -12.97656,-3.37402 -13.23535,5.96973 0,0 0,18.68262 0,18.68262 0,0 12.7168,1.81836 25.17432,-3.11426 0,0 -3.88916,9.60254 -25.17432,8.56543 0,0 0,25.43359 0,25.43359 0,0 1.29883,4.92676 6.48779,4.92676 0,0 16.35596,0 16.35596,0 0,0 5.96387,-4.14844 8.04102,-9.33984 0,0 0.25879,9.08594 -6.22901,12.45703 0,0 -39.9624,0 -39.9624,0 0,0 5.96582,-0.51856 5.96582,-6.48828 0,0 0,-56.31543 0,-56.31543 0,0 -5.19141,-4.15137 -5.19141,-4.15137 z"
         style="fill:#654e2d;fill-opacity:1;fill-rule:nonzero;stroke:none"
         id="path16" /><path
         d="m 282.69434,-135.84082 c 0,0 37.62597,0 37.62597,0 0,0 0,12.4541 0,12.4541 0,0 -2.06836,0 -2.06836,0 0,0 -0.52441,-8.82129 -7.79004,-9.08105 0,0 -12.97949,-3.37305 -13.22949,5.96972 0,0 0,18.68653 0,18.68653 0,0 12.71094,1.81152 25.16504,-3.11426 0,0 -3.88672,9.59961 -25.16504,8.5625 0,0 0,25.43359 0,25.43359 0,0 1.29297,4.92969 6.48145,4.92969 0,0 16.35254,0 16.35254,0 0,0 5.96679,-4.14941 8.04394,-9.34375 0,0 0.25391,9.07812 -6.22851,12.45508 0,0 -39.96485,0 -39.96485,0 0,0 5.96875,-0.51563 5.96875,-6.48535 0,0 0,-56.31543 0,-56.31543 0,0 -5.1914,-4.15137 -5.1914,-4.15137 z"
         style="fill:#654e2d;fill-opacity:1;fill-rule:nonzero;stroke:none"
         id="path18" /><path
         d="m 227.41895,-219.92676 c 0,0 38.66308,0 38.66308,0 0,0 0,12.20117 0,12.20117 0,0 -2.58984,0 -2.58984,0 0,0 -1.81836,-8.30859 -6.75684,-8.30859 0,0 -10.88965,-0.25977 -10.88965,-0.25977 0,0 -3.89843,-1.29589 -3.89843,5.19239 0,0 0,19.2041 0,19.2041 0,0 15.83203,1.81543 25.69628,-2.8584 0,0 -4.15136,8.56836 -25.69628,9.34668 0,0 0,25.1748 0,25.1748 0,0 1.81836,6.22852 21.54492,3.37012 0,0 8.55957,-4.66992 9.08105,-8.30273 0,0 -0.25683,8.56543 -4.67383,12.45703 0,0 -17.38671,0 -17.38671,0 0,0 -17.90821,-11.67871 -17.90821,-11.67871 0,0 0,-51.64551 0,-51.64551 0,0 -4.66699,0 -4.66699,0 0,0 -0.51855,-3.89258 -0.51855,-3.89258 z"
         style="fill:#654e2d;fill-opacity:1;fill-rule:nonzero;stroke:none"
         id="path20" /><path
         d="m 355.70703,-153.39844 c -13.76269,0 -24.91504,-14.41211 -24.91504,-32.18457 0,-17.77246 11.15235,-32.17773 24.91504,-32.17773 13.75391,0 24.91211,14.40527 24.91211,32.17773 0,17.77246 -11.1582,32.18457 -24.91211,32.18457 z m -0.17676,-67.30664 c -18.63379,0 -33.7373,15.80176 -33.7373,35.2959 0,19.49414 15.10351,35.29199 33.7373,35.29199 18.63282,0 33.73731,-15.79785 33.73731,-35.29199 0,-19.49414 -15.10449,-35.2959 -33.73731,-35.2959 z"
         style="fill:#654e2d;fill-opacity:1;fill-rule:nonzero;stroke:none"
         id="path22" /><path
         d="m 126.29102,-70.35352 c -13.75977,0 -24.91504,-14.4082 -24.91504,-32.18066 0,-17.77637 11.15527,-32.17871 24.91504,-32.17871 13.75976,0 24.91211,14.40234 24.91211,32.17871 0,17.77246 -11.15235,32.18066 -24.91211,32.18066 z m -0.1709,-67.30566 c -18.63672,0 -33.73682,15.80176 -33.73682,35.2959 0,19.49316 15.1001,35.29492 33.73682,35.29492 18.62695,0 33.73681,-15.80176 33.73681,-35.29492 0,-19.49414 -15.10986,-35.2959 -33.73681,-35.2959 z"
         style="fill:#654e2d;fill-opacity:1;fill-rule:nonzero;stroke:none"
         id="path24" /><path
         d="m 215.73926,-120.69922 c 0,0 3.80664,-14.19043 3.80664,-14.19043 0,0 -41.17383,-16.26465 -52.42285,20.58692 0,0 -9.34082,33.74218 20.24121,45.15722 0,0 19.20508,9.8584 35.81738,-14.52832 0,0 -1.39062,-0.35156 -1.39062,-0.35156 0,0 -25.94629,20.58984 -40.48438,-0.52149 0,0 -5.3623,-7.95214 -5.5332,-16.26171 0,0 -0.69239,-11.76758 1.03711,-16.6084 0,0 5.70996,-18.33887 23.01172,-17.47266 0,0 12.11035,0.86328 14.18457,9.5166 0,0 0.69531,3.97852 0.69531,3.97852 0,0 1.03711,0.69531 1.03711,0.69531 z"
         style="fill:#654e2d;fill-opacity:1;fill-rule:nonzero;stroke:none"
         id="path26" /><path
         d="m 220.27637,-136.49219 c 0,0 24.78515,0 24.78515,0 0,0 -7.91406,1.29883 -7.91406,7.00684 0,0 0,22.45215 0,22.45215 0,0 20.24219,1.42187 26.86035,-1.5625 0,0 0,-20.23828 0,-20.23828 0,0 -3.63574,-6.48829 -6.09375,-6.48829 0,0 -2.9873,0 -2.9873,0 0,0 0,-1.16992 0,-1.16992 0,0 23.6123,0 23.6123,0 0,0 0,1.29883 0,1.29883 0,0 -6.22265,-0.51562 -6.35156,4.28125 0,0 0,58.13086 0,58.13086 0,0 4.27734,3.50586 7.2627,2.5957 0,0 0,1.42871 0,1.42871 0,0 -24.26368,0 -24.26368,0 0,0 0,-1.04004 0,-1.04004 0,0 8.30567,-0.64843 8.30567,-9.08105 0,0 0,-26.4707 0,-26.4707 0,0 -11.03418,4.41113 -23.48926,4.41113 0,0 -2.85547,0 -2.85547,0 0,0 0,26.60059 0,26.60059 0,0 1.94531,5.44824 7.91406,4.02441 0,0 0,2.33398 0,2.33398 0,0 -23.22656,0 -23.22656,0 0,0 0,-1.81836 0,-1.81836 0,0 6.36133,-0.25585 6.36133,-7.78417 0,0 0,-53.07129 0,-53.07129 0,0 -1.6875,-4.54102 -7.66016,-4.28125 0,0 -0.25976,-1.5586 -0.25976,-1.5586 z"
         style="fill:#654e2d;fill-opacity:1;fill-rule:nonzero;stroke:none"
         id="path28" /><path
         d="m 385.84375,-121.95801 c 0,0 2.95703,0 2.95703,0 0.62793,0 1.12695,-0.0674 1.47656,-0.19629 0.35059,-0.13086 0.625,-0.33593 0.80469,-0.625 0.18262,-0.2832 0.27637,-0.5957 0.27637,-0.93164 0,-0.49219 -0.17871,-0.89551 -0.53613,-1.21386 -0.35938,-0.31543 -0.91309,-0.47168 -1.68555,-0.47168 0,0 -3.29297,0 -3.29297,0 0,0 0,3.43847 0,3.43847 z m -1.37988,5.82324 c 0,0 0,-10.41406 0,-10.41406 0,0 4.62011,0 4.62011,0 0.92579,0 1.62696,0.0918 2.10938,0.28125 0.4834,0.1875 0.86914,0.51465 1.1582,0.98926 0.28614,0.47461 0.4336,0.99609 0.4336,1.57031 0,0.73731 -0.23828,1.36133 -0.71289,1.8711 -0.48047,0.5039 -1.22071,0.82519 -2.21582,0.96093 0.35937,0.17676 0.63574,0.35352 0.83105,0.52442 0.39746,0.36523 0.7832,0.82519 1.13672,1.3789 0,0 1.79687,2.83789 1.79687,2.83789 0,0 -1.71386,0 -1.71386,0 0,0 -1.37989,-2.16894 -1.37989,-2.16894 -0.40625,-0.62207 -0.73046,-1.09863 -0.98925,-1.43555 -0.26563,-0.3291 -0.49512,-0.55957 -0.70118,-0.69531 -0.20605,-0.13184 -0.41894,-0.22363 -0.63086,-0.27637 -0.15332,-0.0332 -0.41308,-0.0508 -0.76269,-0.0508 0,0 -1.59961,0 -1.59961,0 0,0 0,4.62695 0,4.62695 0,0 -1.37988,0 -1.37988,0 z"
         style="fill:#654e2d;fill-opacity:1;fill-rule:nonzero;stroke:none"
         id="path30" /><path
         d="m 379.75,-121.0498 c 0,4.87597 3.95117,8.82421 8.82813,8.82421 4.86914,0 8.82128,-3.94824 8.82128,-8.82421 0,-4.87012 -3.95214,-8.82227 -8.82128,-8.82227 -4.87696,0 -8.82813,3.95215 -8.82813,8.82227 z"
         style="fill:none;stroke:#654e2d;stroke-width:0.5;stroke-linecap:butt;stroke-linejoin:miter;stroke-miterlimit:4;stroke-dasharray:none;stroke-opacity:1"
         id="path32" /><path
         d="m 149.48535,-188.47949 c -1.82373,0 -3.13769,-0.14746 -3.94824,-0.43653 -0.80762,-0.28515 -1.32324,-0.71875 -1.53809,-1.30175 -0.21777,-0.58301 -0.32422,-1.52051 -0.32422,-2.80567 0,0 0,-17.88086 0,-17.88086 0,-1.93652 0.0649,-3.28613 0.20606,-4.0459 0.12988,-0.76074 0.54297,-1.34375 1.24121,-1.75 0.69189,-0.40429 1.88818,-0.60742 3.57959,-0.60742 2.46631,0 4.60791,0.21778 6.4292,0.66602 1.81787,0.44238 3.47656,1.18457 4.9707,2.2334 3.7627,2.63086 5.64844,6.58203 5.64844,11.85644 0,1.77442 -0.21826,3.37988 -0.64258,4.82031 -0.41846,1.44141 -1.0957,2.72852 -2.03613,3.8545 -0.93701,1.13379 -2.23047,2.18261 -3.89209,3.1582 -1.40283,0.82812 -2.88135,1.4082 -4.42529,1.73828 -1.55274,0.33301 -3.30909,0.50098 -5.26856,0.50098 z m 43.9082,36.24121 c -6.38281,-1.06055 -35.08691,-35.2627 -35.08691,-35.2627 15.05664,-5.31543 16.12305,-16.83007 16.12305,-16.83007 1.06396,-12.05176 -7.88477,-15.0625 -10.27686,-15.59571 -2.39258,-0.53027 -36.854,0 -36.854,0 0,0 0.17676,1.4209 0.17676,1.4209 6.20214,-0.71094 6.90625,3.7207 6.90625,3.7207 0,0 0,58.11817 0,58.11817 0,3.72168 -6.02246,5.31836 -6.02246,5.31836 0,0 0,1.23828 0,1.23828 0,0 23.38867,0 23.38867,0 0,0 0,-1.06153 0,-1.06153 -6.55567,0.17676 -8.32617,-7.79589 -8.32617,-7.79589 0,0 0,-26.04688 0,-26.04688 0,0 6.20214,0 6.20214,0 1.417,0.35059 10.1001,11.16113 10.1001,11.16113 13.10889,20.37793 24.27588,23.38868 24.27588,23.38868 4.43164,1.59375 11.87109,0 11.87109,0 0,0 0,-1.77344 0,-1.77344 0,0 -2.47754,0 -2.47754,0 z"
         style="fill:#654e2d;fill-opacity:1;fill-rule:nonzero;stroke:none"
         id="path34" /><path
         d="m 60.93848,-105.3457 c -1.81739,0 -3.13477,-0.13868 -3.94776,-0.42774 -0.8042,-0.29101 -1.32031,-0.72461 -1.53857,-1.30469 -0.21777,-0.583 -0.32031,-1.5205 -0.32031,-2.80468 0,0 0,-17.88184 0,-17.88184 0,-1.93652 0.06738,-3.28515 0.1997,-4.04883 0.13575,-0.75683 0.55127,-1.34375 1.24073,-1.75 0.69531,-0.40136 1.8916,-0.60742 3.583,-0.60742 2.46582,0 4.6084,0.21875 6.42578,0.66602 1.81836,0.44238 3.47999,1.19043 4.97071,2.2373 3.76562,2.63086 5.65137,6.57813 5.65137,11.85547 0,1.77148 -0.21192,3.37988 -0.63624,4.81738 -0.42431,1.44141 -1.10498,2.72852 -2.04492,3.85743 -0.93115,1.13183 -2.22754,2.18359 -3.88623,3.1582 -1.39941,0.82812 -2.88183,1.40527 -4.43164,1.73535 -1.55273,0.33594 -3.30273,0.49805 -5.26562,0.49805 z m 43.9082,36.24804 c -6.37598,-1.06152 -35.08594,-35.26367 -35.08594,-35.26367 15.06201,-5.3125 16.12891,-16.83008 16.12891,-16.83008 1.06055,-12.05078 -7.8877,-15.06543 -10.2832,-15.5957 -2.38965,-0.53027 -36.8545,0 -36.8545,0 0,0 0.17676,1.41699 0.17676,1.41699 6.20313,-0.70996 6.91309,3.72168 6.91309,3.72168 0,0 0,58.1211 0,58.1211 0,3.71875 -6.0293,5.3164 -6.0293,5.3164 0,0 0,1.24024 0,1.24024 0,0 23.38965,0 23.38965,0 0,0 0,-1.06446 0,-1.06446 -6.55371,0.17383 -8.32715,-7.79589 -8.32715,-7.79589 0,0 0,-26.0459 0,-26.0459 0,0 6.19922,0 6.19922,0 1.42041,0.34961 10.10058,11.16406 10.10058,11.16406 13.11768,20.37402 24.27881,23.38867 24.27881,23.38867 4.42823,1.59375 11.87403,0 11.87403,0 0,0 0,-1.77344 0,-1.77344 0,0 -2.48096,0 -2.48096,0 z"
         style="fill:#654e2d;fill-opacity:1;fill-rule:nonzero;stroke:none"
         id="path36" /><path
         d="m 290.41113,-188.47949 c -1.81836,0 -3.13281,-0.14746 -3.94238,-0.43653 -0.81055,-0.28515 -1.32324,-0.71875 -1.53809,-1.30175 -0.22168,-0.58301 -0.32714,-1.52051 -0.32714,-2.80567 0,0 0,-17.88086 0,-17.88086 0,-1.93652 0.0703,-3.28613 0.20605,-4.0459 0.13574,-0.76074 0.54199,-1.34375 1.23731,-1.75 0.70117,-0.40429 1.88574,-0.60742 3.583,-0.60742 2.46582,0 4.61426,0.21778 6.42871,0.66602 1.82129,0.44238 3.4834,1.18457 4.97364,2.2334 3.76074,2.63086 5.6455,6.58203 5.6455,11.85644 0,1.77442 -0.21484,3.37988 -0.64257,4.82031 -0.41797,1.44141 -1.09571,2.72852 -2.03809,3.8545 -0.93066,1.13379 -2.22754,2.18261 -3.88379,3.1582 -1.40527,0.82812 -2.88086,1.4082 -4.4375,1.73828 -1.54394,0.33301 -3.29687,0.50098 -5.26465,0.50098 z m 43.91114,36.24121 c -6.37989,-1.06055 -35.08692,-35.2627 -35.08692,-35.2627 15.06153,-5.31543 16.12598,-16.83007 16.12598,-16.83007 1.06347,-12.05176 -7.8877,-15.0625 -10.28028,-15.59571 -2.38964,-0.53027 -36.85449,0 -36.85449,0 0,0 0.17676,1.4209 0.17676,1.4209 6.19922,-0.71094 6.91016,3.7207 6.91016,3.7207 0,0 0,58.11817 0,58.11817 0,3.72168 -6.02539,5.31836 -6.02539,5.31836 0,0 0,1.23828 0,1.23828 0,0 23.3916,0 23.3916,0 0,0 0,-1.06153 0,-1.06153 -6.55567,0.17676 -8.3291,-7.79589 -8.3291,-7.79589 0,0 0,-26.04688 0,-26.04688 0,0 6.2041,0 6.2041,0 1.41211,0.35059 10.09472,11.16113 10.09472,11.16113 13.11231,20.37793 24.2793,23.38868 24.2793,23.38868 4.43164,1.59375 11.87109,0 11.87109,0 0,0 0,-1.77344 0,-1.77344 0,0 -2.47753,0 -2.47753,0 z"
         style="fill:#654e2d;fill-opacity:1;fill-rule:nonzero;stroke:none"
         id="path38" /><path
         d="m 349.21875,-105.3457 c -1.82031,0 -3.13477,-0.13868 -3.94238,-0.42774 -0.81543,-0.29101 -1.32617,-0.72461 -1.53809,-1.30469 -0.22363,-0.583 -0.33008,-1.5205 -0.33008,-2.80468 0,0 0,-17.88184 0,-17.88184 0,-1.93652 0.0713,-3.28515 0.20703,-4.04883 0.13477,-0.75683 0.54493,-1.34375 1.24317,-1.75 0.68848,-0.40136 1.88281,-0.60742 3.57715,-0.60742 2.46289,0 4.61035,0.21875 6.42578,0.66602 1.82422,0.44238 3.48242,1.19043 4.97656,2.2373 3.75977,2.63086 5.64551,6.57813 5.64551,11.85547 0,1.77148 -0.21777,3.37988 -0.63965,4.81738 -0.41504,1.44141 -1.10156,2.72852 -2.03613,3.85743 -0.94239,1.13183 -2.2334,2.18359 -3.88965,3.1582 -1.40234,0.82812 -2.88379,1.40527 -4.43164,1.73535 -1.54883,0.33594 -3.30469,0.49805 -5.26758,0.49805 z m 43.9082,36.24804 c -6.38281,-1.06152 -35.08593,-35.26367 -35.08593,-35.26367 15.06152,-5.3125 16.12207,-16.83008 16.12207,-16.83008 1.06738,-12.05078 -7.88477,-15.06543 -10.27442,-15.5957 -2.38867,-0.53027 -36.85644,0 -36.85644,0 0,0 0.1709,1.41699 0.1709,1.41699 6.20507,-0.70996 6.9121,3.72168 6.9121,3.72168 0,0 0,58.1211 0,58.1211 0,3.71875 -6.01953,5.3164 -6.01953,5.3164 0,0 0,1.24024 0,1.24024 0,0 23.39258,0 23.39258,0 0,0 0,-1.06446 0,-1.06446 -6.56543,0.17383 -8.32715,-7.79589 -8.32715,-7.79589 0,0 0,-26.0459 0,-26.0459 0,0 6.19629,0 6.19629,0 1.41699,0.34961 10.10352,11.16406 10.10352,11.16406 13.10547,20.37402 24.27246,23.38867 24.27246,23.38867 4.43164,1.59375 11.87402,0 11.87402,0 0,0 0,-1.77344 0,-1.77344 0,0 -2.48047,0 -2.48047,0 z"
         style="fill:#654e2d;fill-opacity:1;fill-rule:nonzero;stroke:none"
         id="path40" /><path
         d="m 198.8291,-188.47949 c -1.81738,0 -3.13769,-0.14746 -3.95117,-0.43653 -0.80664,-0.28515 -1.31934,-0.71875 -1.53516,-1.30175 -0.2207,-0.58301 -0.32617,-1.52051 -0.32617,-2.80567 0,0 0,-17.88086 0,-17.88086 0,-1.93652 0.0703,-3.28613 0.20313,-4.0459 0.13281,-0.76074 0.54785,-1.34375 1.24023,-1.75 0.69238,-0.40429 1.8916,-0.60742 3.58594,-0.60742 2.45996,0 4.60742,0.21778 6.42285,0.66602 1.81836,0.44238 3.4834,1.18457 4.97656,2.2334 3.75977,2.63086 5.64551,6.58203 5.64551,11.85644 0,1.77442 -0.21191,3.37988 -0.63672,4.82031 -0.4209,1.44141 -1.10742,2.72852 -2.04492,3.8545 -0.93066,1.13379 -2.22656,2.18261 -3.88281,3.1582 -1.40235,0.82812 -2.88477,1.4082 -4.4375,1.73828 -1.54981,0.33301 -3.29981,0.50098 -5.25977,0.50098 z m 43.90235,36.24121 c -6.38184,-1.06055 -35.08301,-35.2627 -35.08301,-35.2627 15.06152,-5.31543 16.12793,-16.83007 16.12793,-16.83007 1.06152,-12.05176 -7.88965,-15.0625 -10.28223,-15.59571 -2.38672,-0.53027 -36.85449,0 -36.85449,0 0,0 0.17676,1.4209 0.17676,1.4209 6.19922,-0.71094 6.91259,3.7207 6.91259,3.7207 0,0 0,50.71387 0,50.71387 0,0 9.03077,9.03418 9.03077,9.03418 0,0 0,-29.97754 0,-29.97754 0,0 6.20507,0 6.20507,0 1.41993,0.35059 10.09766,11.16113 10.09766,11.16113 13.11816,20.37793 24.27832,23.38868 24.27832,23.38868 4.42871,1.59375 11.87109,0 11.87109,0 0,0 0,-1.77344 0,-1.77344 0,0 -2.48046,0 -2.48046,0 z"
         style="fill:#654e2d;fill-opacity:1;fill-rule:nonzero;stroke:none"
         id="path42" /></g></g></svg>
